# xmcd
#
# Track frame offsets:
#	150
#	14349
#	40516
#	65882
#	76190
#	94677
#	111646
#	142819
#	162490
#	188914
#	211477
#	236420
#	256120
#	274390
#
# Disc length: 3981 seconds
#
# Revision: 1
# Processed by: cddbd v1.5PL3 Copyright (c) Steve Scherf et al.
# Submitted via: CDmax 2.0
#
DISCID=c20f8b0e
DTITLE=Barry White - The Ballads
DYEAR=1900
DGENRE=Blues
TTITLE0=You're The One I Need
TTITLE1=Beware
TTITLE2=Love Ain't Easy
TTITLE3=You're My High
TTITLE4=She's Everything To Me
TTITLE5=Relax To the Max
TTITLE6=Don't Tell Me About Heartaches
TTITLE7=It's All About Love
TTITLE8=Love Song
TTITLE9=Love Makin' Music
TTITLE10=High Steppin' Hip Dressin' Fella
TTITLE11=I Won't Settle For Less Then The Best
TTITLE12=I'm So Glad That I'm A Woman
TTITLE13=Didn't We Make It Happen Baby
EXTD=
EXTT0=
EXTT1=
EXTT2=
EXTT3=
EXTT4=
EXTT5=
EXTT6=
EXTT7=
EXTT8=
EXTT9=
EXTT10=
EXTT11=
EXTT12=
EXTT13=
PLAYORDER=
